<svg width="40" height="40" viewBox="0 0 40 40" fill="none" xmlns="http://www.w3.org/2000/svg">
<path d="M27.8655 17.9955C25.2875 17.9955 24.9294 20.5686 24.9294 20.5686H30.4102C30.4102 20.5686 30.4451 17.9955 27.8655 17.9955Z" fill="#26405B"/>
<path d="M15.4305 20.5686H10.5718V25.0292H14.8733C14.9464 25.0292 15.0561 25.0309 15.1844 25.0292C15.8764 25.013 17.1881 24.8116 17.1881 22.8606C17.1881 20.545 15.4305 20.5686 15.4305 20.5686Z" fill="#26405B"/>
<path d="M20.0008 0C8.95468 0 0 8.95305 0 19.9992C0 31.0453 8.95468 40 20.0008 40C31.0453 40 40 31.0453 40 19.9992C40 8.95387 31.0445 0 20.0008 0ZM24.2105 12.2888H31.0957V14.3437H24.2105V12.2888ZM20.7302 23.0685C20.7302 28.162 15.4305 27.9938 15.4305 27.9938H10.5718H10.4297H6.74626V11.306H10.4297H10.5718H15.4305C18.0686 11.306 20.1511 12.7632 20.1511 15.7489C20.1511 18.7346 17.6048 18.9246 17.6048 18.9246C20.9617 18.9246 20.7302 23.0685 20.7302 23.0685ZM33.6103 22.7956H24.9626C24.9626 25.8951 27.8988 25.7001 27.8988 25.7001C30.6717 25.7001 30.575 23.9043 30.575 23.9043H33.5128C33.5128 28.6696 27.8005 28.3431 27.8005 28.3431C20.9487 28.3431 21.3897 21.9631 21.3897 21.9631C21.3897 21.9631 21.3832 15.5523 27.8005 15.5523C34.5557 15.5523 33.6103 22.7956 33.6103 22.7956Z" fill="#26405B"/>
<path d="M16.6106 16.008C16.6106 14.2722 15.4305 14.2722 15.4305 14.2722H14.8051H10.5718V17.9954H15.1291C15.9154 17.9954 16.6106 17.7428 16.6106 16.008Z" fill="#26405B"/>
</svg>
