<svg width="40" height="40" viewBox="0 0 40 40" fill="none" xmlns="http://www.w3.org/2000/svg">
<g clip-path="url(#clip0_1_30)">
<path d="M19.8375 39.8175C30.8721 39.8175 39.8175 30.8722 39.8175 19.8375C39.8175 8.80289 30.8721 -0.142456 19.8375 -0.142456C8.80283 -0.142456 -0.142517 8.80289 -0.142517 19.8375C-0.142517 30.8722 8.80283 39.8175 19.8375 39.8175Z" fill="#26405B"/>
<path d="M29.1375 11H11.2375C10.0067 11 9 12.0073 9 13.2375V26.6625C9 27.8927 10.0067 28.9 11.2375 28.9H29.1375C30.3677 28.9 31.375 27.8927 31.375 26.6625V13.2375C31.375 12.0073 30.3677 11 29.1375 11ZM29.1375 26.6625H26.9V16.8177L20.1875 21.0687L13.475 16.8177V26.6625H11.2375V13.2375H12.5802L20.1875 17.9365L27.7948 13.2375H29.1375V26.6625Z" fill="#FFF5E4"/>
</g>
<defs>
<clipPath id="clip0_1_30">
<rect width="40" height="40" fill="white"/>
</clipPath>
</defs>
</svg>
