<svg width="235" height="68" viewBox="0 0 235 68" fill="none" xmlns="http://www.w3.org/2000/svg">
<path fill-rule="evenodd" clip-rule="evenodd" d="M56.0727 17.5683L30.4193 2.76192C29.9656 2.50004 29.4066 2.50005 28.9529 2.76192L3.29954 17.5683C2.84582 17.8302 2.56631 18.3141 2.56631 18.8379V48.4506C2.56631 48.9744 2.84582 49.4584 3.29954 49.7202L28.9529 64.5266C29.4066 64.7885 29.9656 64.7885 30.4193 64.5266L56.0727 49.7202C56.5264 49.4584 56.8059 48.9744 56.8059 48.4506V18.8379C56.8059 18.3141 56.5264 17.8302 56.0727 17.5683ZM31.7025 0.540122C30.4548 -0.18004 28.9175 -0.180041 27.6697 0.540121L2.01639 15.3465C0.768642 16.0667 0 17.3976 0 18.8379V48.4506C0 49.891 0.768642 51.2219 2.01639 51.942L27.6697 66.7484C28.9175 67.4686 30.4548 67.4686 31.7025 66.7484L57.3558 51.942C58.6036 51.2219 59.3722 49.891 59.3722 48.4506V18.8379C59.3722 17.3976 58.6036 16.0667 57.3558 15.3465L31.7025 0.540122Z" fill="#FFF5E4"/>
<path d="M18.3516 14.7534C20.5106 19.6111 25.9081 22.3099 28.247 28.7869C26.8077 22.4898 21.5901 19.3724 19.9709 13.8538C18.8194 13.7099 18.4116 14.3936 18.3516 14.7534Z" fill="#FFF5E4"/>
<path d="M26.9872 16.1926C29.8658 17.9917 30.5855 21.0503 30.4056 24.4687C31.3051 18.8913 29.6859 16.1926 28.4265 14.7532C27.7067 14.7532 26.8433 15.185 26.9872 16.1926Z" fill="#FFF5E4"/>
<path d="M39.5812 16.5524C32.2047 22.4896 29.1461 26.6277 29.1461 32.9247C30.2256 24.2888 38.3218 19.2511 40.4808 17.6319C40.6247 16.7683 39.9411 16.5524 39.5812 16.5524Z" fill="#FFF5E4"/>
<path d="M29.5062 45.6993L28.0668 47.1387V57.5738C28.7865 58.4734 30.0459 58.1135 30.4057 57.5738V47.1387L29.5062 45.6993Z" fill="#FFF5E4"/>
<path d="M26.2678 39.9416C26.3278 40.2415 26.6276 41.129 27.3473 42.2805C21.4101 41.201 16.0126 44.0797 12.0544 42.2805C8.09628 40.4813 4.8578 35.0839 5.57746 34.5441C6.29712 34.0044 11.6946 32.3851 14.9331 33.4646C17.5239 34.3282 23.569 38.1424 26.2678 39.9416Z" fill="#FFF5E4"/>
<path d="M32.5649 39.8015C32.5049 40.1013 32.205 40.9889 31.4854 42.1404C37.4225 41.0608 42.8201 43.9396 46.7782 42.1404C50.7364 40.3412 53.9748 34.9437 53.2552 34.404C52.5355 33.8642 47.138 32.245 43.8996 33.3245C41.3088 34.1881 35.2636 38.0023 32.5649 39.8015Z" fill="#FFF5E4"/>
<path d="M29.1461 43.5397C28.9062 43.4798 28.4624 43.2519 27.8867 42.8201C27.0471 42.8201 24.6122 42.892 21.5896 43.1799C19.0708 43.4198 18.711 44.7991 15.6524 45.5188C13.3135 45.8786 12.4739 47.0181 12.234 47.6778C12.234 48.3975 15.8323 52.8954 19.6106 52.1757C23.6407 51.0242 27.5868 45.9386 29.1461 43.5397Z" fill="#FFF5E4"/>
<path d="M29.8657 43.5401C30.1056 43.4801 30.5494 43.0724 31.1251 42.6406C31.9647 42.6406 34.2197 42.7524 37.2423 43.0403C39.7611 43.2802 40.1209 44.6596 43.1795 45.3792C45.5184 45.739 46.358 46.8785 46.5979 47.5382C46.5979 48.2579 42.9996 52.7558 39.2214 52.0361C35.1912 50.8846 31.425 45.939 29.8657 43.5401Z" fill="#FFF5E4"/>
<path d="M16.9116 31.6658C17.2715 31.9656 19.6464 33.8248 26.2673 38.8624C22.8128 32.0976 23.7485 29.087 24.6481 28.4273C24.1683 26.4482 22.741 22.2022 20.8698 21.0507C17.4155 18.8918 13.1338 19.0717 12.9535 19.4315C12.4141 19.9712 12.6656 22.2382 12.9535 25.5486C13.2413 28.8591 15.7122 31.0061 16.9116 31.6658Z" fill="#FFF5E4"/>
<path d="M41.921 31.5256C41.5612 31.8255 39.1863 33.6846 32.5654 38.7223C36.0198 31.9575 35.0842 28.9468 34.1846 28.2872C34.6643 26.3081 36.0917 22.0621 37.9628 20.9106C41.4172 18.7516 45.6988 18.9315 45.8792 19.2914C46.4185 19.8311 46.167 22.0981 45.8792 25.4085C45.5913 28.719 43.1204 30.866 41.921 31.5256Z" fill="#FFF5E4"/>
<path d="M27.1673 37.423C27.7071 38.5025 27.3473 39.4021 28.6067 42.2807C28.8944 41.2732 28.3668 38.5025 28.0671 37.2431C28.9667 34.5442 27.7073 28.7869 26.2678 28.787C24.2888 28.787 25.728 37.0631 27.1673 37.423Z" fill="#FFF5E4"/>
<path d="M31.6654 37.2828C31.1256 38.3623 31.4854 39.2619 30.226 42.1405C29.9383 41.133 30.4659 38.3623 30.7656 37.1029C29.866 34.404 31.1254 28.6467 32.5649 28.6468C34.5439 28.6468 33.1047 36.9229 31.6654 37.2828Z" fill="#FFF5E4"/>
<path d="M214.714 63.6379V39.4624L231.068 54.3943V42.8399L234.979 39.4624V63.6379L218.625 48.706V60.2604L214.714 63.6379Z" fill="#FFF5E4"/>
<path d="M70.3723 7.82101V3.91028H80.8601C87.8283 5.47457 86.5485 13.3316 84.9486 15.287C89.9259 17.7756 89.0371 26.6636 82.9933 28.0857H70.3723V24.175H82.2822C84.9486 23.4639 84.9486 18.8422 82.2822 18.1311H70.3723V14.2204H79.9713C83.171 13.5094 83.171 8.53205 79.9713 7.82101H70.3723Z" fill="#FFF5E4"/>
<path d="M174.007 43.3731H162.097V39.4624H175.251C181.65 41.5955 181.65 51.5501 175.251 53.6833L180.762 63.6379H176.318L170.807 53.6833H161.741V49.7725H174.007C177.206 49.0615 177.206 44.0842 174.007 43.3731Z" fill="#FFF5E4"/>
<path d="M114.101 28.0857L126.011 3.91028L137.921 28.0857H133.655L126.011 12.7983L118.368 28.0857H114.101Z" fill="#FFF5E4"/>
<path d="M88.8594 63.6379L100.769 39.4624L112.679 63.6379H108.413L100.769 48.3504L93.1256 63.6379H88.8594Z" fill="#FFF5E4"/>
<path d="M117.657 49.7725V63.6379H121.567V53.6833H132.233V49.7725H117.657Z" fill="#FFF5E4"/>
<path d="M117.657 43.3731V39.4624H133.655V43.3731H117.657Z" fill="#FFF5E4"/>
<path d="M139.699 49.7725V63.6379H143.61V53.6833H154.275V49.7725H139.699Z" fill="#FFF5E4"/>
<path d="M139.699 43.3731V39.4624H155.697V43.3731H139.699Z" fill="#FFF5E4"/>
<path d="M98.1029 3.91028H94.1922V28.0857H110.191V24.175H98.1029V3.91028Z" fill="#FFF5E4"/>
<path d="M139.699 15.998C139.699 22.6739 145.111 28.0857 151.787 28.0857C155.084 28.0857 157.961 26.6708 160.141 24.5305L157.116 21.8751C155.674 23.1496 153.779 23.9231 151.703 23.9231C147.187 23.9231 143.526 20.2621 143.526 15.7461C143.526 11.2301 147.187 7.56913 151.703 7.56913C153.956 7.56913 155.996 8.48026 157.475 9.95414L160.141 7.26235C157.971 5.18585 155.028 3.91028 151.787 3.91028C145.111 3.91028 139.699 9.32214 139.699 15.998Z" fill="#FFF5E4"/>
<path d="M170.274 15.6425L179.873 3.91028H174.718L165.119 15.6425L174.718 28.0857H179.873L170.274 15.6425Z" fill="#FFF5E4"/>
<path d="M78.3592 63.6379C76.6429 63.6379 75.0798 63.2814 73.67 62.5686C72.2908 61.8557 71.3101 60.9104 70.7278 59.7326L73.2563 57.9659C73.7773 58.8028 74.4975 59.4536 75.417 59.9186C76.3364 60.3835 77.3325 60.6159 78.4052 60.6159C79.6924 60.6159 80.7498 60.244 81.5773 59.5001C82.4355 58.7253 82.8645 57.7645 82.8645 56.6177C82.8645 55.6879 82.5274 54.913 81.8531 54.2931C81.1789 53.6732 79.9836 53.0379 78.2673 52.387C75.6622 51.4262 73.8233 50.4188 72.7506 49.365C71.7085 48.3112 71.1875 47.0095 71.1875 45.4598C71.1875 43.6621 71.8924 42.2209 73.3022 41.1361C74.7121 40.0203 76.5816 39.4624 78.9109 39.4624C80.4127 39.4624 81.7765 39.7878 83.0025 40.4387C84.259 41.0896 85.2245 41.9884 85.8987 43.1352L83.5082 44.9019C82.4355 43.2902 80.903 42.4843 78.9109 42.4843C77.7769 42.4843 76.8421 42.7478 76.1066 43.2747C75.4017 43.8016 75.0492 44.4835 75.0492 45.3203C75.0492 46.1571 75.417 46.87 76.1525 47.4589C76.8881 48.0168 78.252 48.6832 80.2441 49.458C82.604 50.3569 84.2744 51.3487 85.2551 52.4335C86.2359 53.4873 86.7262 54.8355 86.7262 56.4782C86.7262 58.6478 85.96 60.3835 84.4276 61.6852C82.8952 62.987 80.8724 63.6379 78.3592 63.6379Z" fill="#FFF5E4"/>
<path fill-rule="evenodd" clip-rule="evenodd" d="M196.938 59.7271C201.454 59.7271 205.115 56.0662 205.115 51.5501C205.115 47.0341 201.454 43.3731 196.938 43.3731C192.422 43.3731 188.761 47.0341 188.761 51.5501C188.761 56.0662 192.422 59.7271 196.938 59.7271ZM196.938 63.6379C203.614 63.6379 209.026 58.226 209.026 51.5501C209.026 44.8743 203.614 39.4624 196.938 39.4624C190.262 39.4624 184.85 44.8743 184.85 51.5501C184.85 58.226 190.262 63.6379 196.938 63.6379Z" fill="#FFF5E4"/>
</svg>
